
<svg width="1057px" height="299px" viewBox="0 0 1057 299" version="1.1" xmlns="http://www.w3.org/2000/svg" xmlns:xlink="http://www.w3.org/1999/xlink">
    <g id="Page-1" stroke="none" stroke-width="1" fill="none" fill-rule="evenodd">
        <g id="Group-3" transform="translate(-26.000000, -26.000000)">
            <g id="Group-2">
                <g id="Group-Copy-6" stroke-width="30">
                    <ellipse id="Oval-Copy" stroke="#FF6565" transform="translate(175.008928, 175.500000) rotate(45.000000) translate(-175.008928, -175.500000) " cx="175.008928" cy="175.5" rx="73" ry="174.5"></ellipse>
                    <ellipse id="Oval-Copy" stroke="#FFD000" transform="translate(175.008928, 175.500000) scale(-1, 1) rotate(45.000000) translate(-175.008928, -175.500000) " cx="175.008928" cy="175.5" rx="73" ry="174.5"></ellipse>
                </g>
                <path d="M150.569699,143.793276 C158.694339,141.822116 166.847501,140.836537 175.029184,140.836537 C183.201054,140.836537 191.401377,141.819754 199.630153,143.786188 L199.630154,143.786183 C203.058,144.605337 205.692286,147.349912 206.37024,150.808456 C207.963453,158.936147 208.76006,167.07208 208.76006,175.216257 C208.76006,183.292665 207.976655,191.377178 206.409846,199.469798 L206.40985,199.469799 C205.719542,203.035265 202.953966,205.836477 199.39763,206.572376 C190.861716,208.33868 182.508247,209.221831 174.337222,209.221831 C166.287254,209.221831 158.414365,208.364654 150.718554,206.6503 L150.718554,206.650302 C147.270052,205.882098 144.589985,203.167259 143.866297,199.709141 C142.154304,191.528444 141.298308,183.364149 141.298308,175.216257 C141.298308,167.038127 142.16067,158.860136 143.885394,150.682284 L143.885394,150.682284 C144.60078,147.290248 147.200779,144.610626 150.569699,143.793276 Z" id="Rectangle" fill="#60B3DB" transform="translate(175.029184, 175.029184) rotate(-315.000000) translate(-175.029184, -175.029184) "></path>
            </g>
            <text id="NUZE" font-family="AvenirNext-Regular, Avenir Next" font-size="240" font-weight="normal" fill="#000000">
                <tspan x="461" y="263">NUZE</tspan>
            </text>
        </g>
    </g>
</svg>